<?xml version="1.0" encoding="iso-8859-1"?>
<!-- Generator: Adobe Illustrator 19.0.0, SVG Export Plug-In . SVG Version: 6.00 Build 0)  -->
<svg version="1.1" id="Layer_1" xmlns="http://www.w3.org/2000/svg" xmlns:xlink="http://www.w3.org/1999/xlink" x="0px" y="0px"
	 viewBox="0 0 496.2 496.2" style="enable-background:new 0 0 496.2 496.2;" xml:space="preserve">
<path style="fill:#48A1AF;" d="M496.2,248.1C496.2,111.1,385.1,0,248.1,0S0,111.1,0,248.1s111.1,248.1,248.1,248.1
	S496.2,385.1,496.2,248.1z"/>
<path style="fill:#D2D4D6;" d="M334.5,390.1c0-11.1-38.7-20.1-86.4-20.1s-86.4,9-86.4,20.1c0,1.9,0,9.1,0,11.1
	c0,11.1,38.7,20.1,86.4,20.1s86.4-9,86.4-20.1C334.5,399.3,334.5,392.1,334.5,390.1z"/>
<ellipse style="fill:#BFC0C1;" cx="248.1" cy="390.1" rx="86.4" ry="20.1"/>
<g>
	<ellipse style="fill:#D2D4D6;" cx="248.1" cy="389.2" rx="12.2" ry="2.8"/>
	<polygon style="fill:#D2D4D6;" points="260.4,389.1 235.8,389.1 240.2,299 256,299 	"/>
</g>
<path style="fill:#BFC0C1;" d="M377,203.8c0-71.2-57.7-128.9-128.9-128.9s-128.9,57.7-128.9,128.9s57.7,128.9,128.9,128.9
	C319.3,332.7,377,275,377,203.8z"/>
<path style="fill:#EFEFEF;" d="M367.9,203.8c0-66.2-53.6-119.8-119.8-119.8s-119.8,53.6-119.8,119.8s53.6,119.8,119.8,119.8
	S367.9,270,367.9,203.8z"/>
<g>
	<path style="fill:#424242;" d="M272.3,213.1c5.1-13.4-1.6-28.3-15-33.4c-13.4-5.1-28.3,1.6-33.4,15c-5.1,13.4,1.6,28.3,15,33.4
		C252.2,233.1,267.2,226.4,272.3,213.1z"/>
	<path style="fill:#424242;" d="M236.3,174.7c7.1-2.8,15.2-3.1,22.8-0.2c5.1,1.9,9.4,5,12.7,8.9c29-41.8,4.9-66,4.9-66
		c-18.1-20.3-40.2-18.1-48.2-12.5c-29.9,21,2,53.1,2,53.1C234.3,163.8,235.8,170.7,236.3,174.7z"/>
	<path style="fill:#424242;" d="M217.9,194.5c-50.4-2.9-58.5,30-58.5,30c-8,26,5.4,43.8,14.3,47.7C207.1,286.9,218,243,218,243
		c3-6.4,8.2-11.2,11.4-13.7C218.7,221.5,213.8,207.5,217.9,194.5z"/>
	<path style="fill:#424242;" d="M345.6,238.1c-2.2-36.4-46.3-26-46.3-26c-9.8,0.4-18.9-4.5-20.1-5.2c-0.3,2.7-0.9,5.5-1.9,8.2
		c-3.7,9.8-11.8,16.6-21.2,19.1c20.5,46.2,53.6,38.4,53.6,38.4C336.5,267.8,346.2,247.8,345.6,238.1z"/>
</g>
<g>
</g>
<g>
</g>
<g>
</g>
<g>
</g>
<g>
</g>
<g>
</g>
<g>
</g>
<g>
</g>
<g>
</g>
<g>
</g>
<g>
</g>
<g>
</g>
<g>
</g>
<g>
</g>
<g>
</g>
</svg>
